<svg width="70.000000" height="70.000000" viewBox="0 0 70 70" fill="none" xmlns="http://www.w3.org/2000/svg" xmlns:xlink="http://www.w3.org/1999/xlink">
	<desc>
			Created with Pixso.
	</desc>
	<defs>
		<clipPath id="clip2255_7">
			<rect id="github_icon" width="70.000000" height="70.000000" fill="white" fill-opacity="0"/>
		</clipPath>
	</defs>
	<rect id="github_icon" width="70.000000" height="70.000000" fill="#FFFFFF" fill-opacity="0"/>
	<g clip-path="url(#clip2255_7)">
		<path id="Vector" d="M35.0753 5.83337C19.0074 5.83337 5.9845 18.8563 5.9845 34.9242C5.9845 47.775 14.3174 58.6804 25.8791 62.5305C27.3345 62.793 27.8595 61.8976 27.8595 61.1276C27.8595 60.4363 27.8362 58.6046 27.8274 56.1809C19.7337 57.9366 18.0245 52.2783 18.0245 52.2783C16.7062 48.9183 14.7957 48.0229 14.7957 48.0229C12.1562 46.2175 14.997 46.2584 14.997 46.2584C17.9195 46.4625 19.4507 49.2567 19.4507 49.2567C22.0466 53.7017 26.2641 52.4183 27.9149 51.6746C28.1803 49.7933 28.9387 48.51 29.767 47.7838C23.3095 47.0518 16.5195 44.5551 16.5195 33.4047C16.5195 30.2343 17.6541 27.6326 19.5062 25.6025C19.2116 24.8646 18.2053 21.9042 19.7949 17.9026C19.7949 17.9026 22.2362 17.1179 27.7924 20.8805C30.1654 20.2349 32.6132 19.9054 35.0724 19.9005C37.5317 19.9044 39.9796 20.234 42.3524 20.8805C47.9116 17.115 50.3499 17.9026 50.3499 17.9026C51.9395 21.9042 50.942 24.8646 50.6387 25.6025C52.5053 27.6326 53.6253 30.2313 53.6253 33.4047C53.6253 44.5842 46.8295 47.04 40.3487 47.7605C41.3841 48.6588 42.3174 50.4321 42.3174 53.1447C42.3174 57.0354 42.2824 60.1738 42.2824 61.1276C42.2824 61.9062 42.8016 62.8104 44.2862 62.5247C55.842 58.6688 64.1662 47.7721 64.1662 34.9242C64.1662 18.8563 51.1432 5.83337 35.0753 5.83337Z" fill="#CCCCCC" fill-opacity="1.000000" fill-rule="evenodd"/>
	</g>
</svg>
