<svg width="87.000000" height="31.000000" viewBox="0 0 170 55" fill="none" xmlns="http://www.w3.org/2000/svg" xmlns:xlink="http://www.w3.org/1999/xlink">
	<desc>
			Created with Pixso.
	</desc>
	<defs/>
	<path id="AXIT" d="M31.161 0L20.3089 0L0 55L11.0071 55L16.0456 41.2888L35.2693 41.2888L40.3853 55L51.3925 55L31.161 0ZM76.8076 20.2957L63.165 0L51.4603 0L70.5289 27.8872L52.0804 55L63.7851 55L76.8076 35.4788L89.7526 55L101.38 55L82.9313 27.8872L102 0L90.3727 0L76.8076 20.2957ZM25.735 11.0774L33.3314 33.7747L17.8284 33.7747L25.735 11.0774Z" fill="#FFFFFF" fill-opacity="1.000000" fill-rule="evenodd"/>
	<path id="AXIT" d="M107 0L107 55L117.64 55L117.64 0L107 0ZM152.499 9.37329L170 9.37329L170 0L124.435 0L124.435 9.37329L141.936 9.37329L141.936 55L152.499 55L152.499 9.37329Z" fill="#EC7979" fill-opacity="1.000000" fill-rule="evenodd"/>
</svg>
