<svg width="64.000000" height="64.000000" viewBox="0 0 64 64" fill="none" xmlns="http://www.w3.org/2000/svg" xmlns:xlink="http://www.w3.org/1999/xlink">
	<desc>
			Created with Pixso.
	</desc>
	<defs>
		<clipPath id="clip5017_2798">
			<rect id="instagram_icon" width="64.000008" height="64.000008" fill="white" fill-opacity="0"/>
		</clipPath>
	</defs>
	<rect id="instagram_icon" width="64.000008" height="64.000008" fill="#FFFFFF" fill-opacity="0"/>
	<g clip-path="url(#clip5017_2798)">
		<path id="Vector" d="M55.8588 22.1466C55.8318 20.1268 55.4537 18.1273 54.7415 16.2372C54.1237 14.6429 53.1802 13.1951 51.9712 11.9861C50.7622 10.7771 49.3143 9.83362 47.7201 9.21594C45.8542 8.5155 43.8832 8.13684 41.8907 8.09583C39.3254 7.9812 38.5121 7.94922 32.0001 7.94922C25.488 7.94922 24.6534 7.94922 22.1067 8.09583C20.1151 8.13708 18.145 8.51575 16.28 9.21594C14.6855 9.83313 13.2374 10.7765 12.0284 11.9856C10.8193 13.1946 9.87598 14.6427 9.25879 16.2372C8.55701 18.1016 8.17908 20.0721 8.14136 22.0638C8.02673 24.6318 7.99207 25.4452 7.99207 31.9573C7.99207 38.4692 7.99207 39.3013 8.14136 41.8506C8.1814 43.8452 8.55737 45.8132 9.25879 47.6826C9.87708 49.2766 10.8212 50.7241 12.0305 51.9326C13.24 53.1411 14.6882 54.0841 16.2827 54.7012C18.1426 55.4298 20.113 55.8356 22.1094 55.9012C24.6774 56.0159 25.4907 56.0505 32.0027 56.0505C38.5148 56.0505 39.3494 56.0505 41.8961 55.9012C43.8884 55.8619 45.8597 55.4841 47.7253 54.7839C49.3192 54.1654 50.7667 53.2217 51.9756 52.0128C53.1846 50.804 54.1283 49.3564 54.7467 47.7626C55.4481 45.8959 55.8241 43.9279 55.864 41.9305C55.9788 39.3652 56.0134 38.5519 56.0134 32.0372C56.0081 25.5253 56.0081 24.6986 55.8588 22.1466ZM31.9841 44.2719C25.1735 44.2719 19.656 38.7545 19.656 31.9438C19.656 25.1332 25.1735 19.6158 31.9841 19.6158C35.2537 19.6158 38.3893 20.9147 40.7013 23.2267C43.0132 25.5386 44.312 28.6743 44.312 31.9438C44.312 35.2135 43.0132 38.3491 40.7013 40.6611C38.3893 42.973 35.2537 44.2719 31.9841 44.2719ZM44.8027 22.0345C44.4252 22.0349 44.0511 21.9608 43.7023 21.8164C43.3533 21.6721 43.0363 21.4603 42.7693 21.1934C42.5022 20.9264 42.2905 20.6094 42.1461 20.2604C42.0018 19.9115 41.9277 19.5375 41.9281 19.1599C41.9281 18.7826 42.0024 18.4089 42.1467 18.0603C42.2911 17.7117 42.5028 17.3949 42.7697 17.1282C43.0365 16.8613 43.3533 16.6497 43.7018 16.5052C44.0504 16.3608 44.4241 16.2865 44.8014 16.2865C45.1787 16.2865 45.5524 16.3608 45.901 16.5052C46.2496 16.6497 46.5664 16.8613 46.8331 17.1282C47.1 17.3949 47.3116 17.7117 47.4561 18.0603C47.6005 18.4089 47.6747 18.7826 47.6747 19.1599C47.6747 20.7493 46.3894 22.0345 44.8027 22.0345Z" fill="#CCCCCC" fill-opacity="1.000000" fill-rule="nonzero"/>
		<path id="Vector" d="M39.9923 31.944C39.9923 36.3666 36.407 39.9519 31.9844 39.9519C27.5616 39.9519 23.9763 36.3666 23.9763 31.944C23.9763 27.5212 27.5616 23.9359 31.9844 23.9359C36.407 23.9359 39.9923 27.5212 39.9923 31.944Z" fill="#CCCCCC" fill-opacity="1.000000" fill-rule="evenodd"/>
	</g>
</svg>
