<svg width="70.000000" height="70.000000" viewBox="0 0 70 70" fill="none" xmlns="http://www.w3.org/2000/svg" xmlns:xlink="http://www.w3.org/1999/xlink">
	<desc>
			Created with Pixso.
	</desc>
	<defs>
		<clipPath id="clip2255_9">
			<rect id="instagram_icon" width="70.000000" height="70.000000" fill="white" fill-opacity="0"/>
		</clipPath>
	</defs>
	<rect id="instagram_icon" width="70.000000" height="70.000000" fill="#FFFFFF" fill-opacity="0"/>
	<g clip-path="url(#clip2255_9)">
		<path id="Vector" d="M61.0956 24.2228C61.0662 22.0138 60.6527 19.8267 59.8735 17.7594C59.1979 16.0157 58.166 14.4321 56.8436 13.1097C55.5213 11.7875 53.9377 10.7555 52.194 10.0798C50.1533 9.31384 47.9974 8.89966 45.8181 8.85486C43.0123 8.72949 42.1227 8.69446 35.0002 8.69446C27.8777 8.69446 26.9648 8.69446 24.1794 8.85486C22.0011 8.8999 19.8462 9.31421 17.8065 10.0798C16.0625 10.755 14.4786 11.7869 13.1562 13.1093C11.8338 14.4316 10.8021 16.0155 10.1269 17.7594C9.35928 19.7986 8.94598 21.954 8.90479 24.1323C8.77936 26.9412 8.74146 27.8307 8.74146 34.9532C8.74146 42.0757 8.74146 42.9857 8.90479 45.774C8.94855 47.9557 9.3598 50.1082 10.1269 52.1528C10.8032 53.8962 11.8357 55.4795 13.1586 56.8013C14.4814 58.1232 16.0654 59.1544 17.8094 59.8295C19.8436 60.6263 21.9988 61.0702 24.1823 61.142C26.991 61.2673 27.8806 61.3053 35.0031 61.3053C42.1256 61.3053 43.0385 61.3053 45.8239 61.142C48.0031 61.099 50.1592 60.6858 52.1998 59.9199C53.9431 59.2434 55.5263 58.2112 56.8485 56.889C58.1707 55.5668 59.2029 53.9835 59.8794 52.2402C60.6465 50.1986 61.0577 48.0461 61.1014 45.8616C61.2269 43.0557 61.2648 42.1661 61.2648 35.0406C61.2589 27.9182 61.259 27.014 61.0956 24.2228ZM34.9827 48.4224C27.5335 48.4224 21.499 42.3878 21.499 34.9386C21.499 27.4895 27.5335 21.4548 34.9827 21.4548C38.5588 21.4548 41.9885 22.8755 44.5172 25.4042C47.0458 27.9329 48.4665 31.3625 48.4665 34.9386C48.4665 38.5148 47.0458 41.9443 44.5172 44.473C41.9885 47.0017 38.5588 48.4224 34.9827 48.4224ZM49.0031 24.1003C48.5901 24.1007 48.1811 24.0197 47.7994 23.8617C47.4178 23.7039 47.071 23.4723 46.779 23.1803C46.487 22.8882 46.2554 22.5414 46.0975 22.1598C45.9396 21.7782 45.8586 21.3691 45.8589 20.9562C45.8589 20.5435 45.9402 20.1348 46.0982 19.7534C46.2561 19.3722 46.4876 19.0258 46.7794 18.7339C47.0713 18.442 47.4177 18.2106 47.799 18.0526C48.1803 17.8947 48.589 17.8135 49.0016 17.8135C49.4144 17.8135 49.823 17.8947 50.2043 18.0526C50.5856 18.2106 50.9321 18.442 51.2239 18.7339C51.5157 19.0258 51.7472 19.3722 51.9052 19.7534C52.0631 20.1348 52.1444 20.5435 52.1444 20.9562C52.1444 22.6945 50.7385 24.1003 49.0031 24.1003Z" fill="#CCCCCC" fill-opacity="1.000000" fill-rule="nonzero"/>
		<path id="Vector" d="M43.7416 34.9387C43.7416 39.776 39.8202 43.6974 34.9829 43.6974C30.1455 43.6974 26.2241 39.776 26.2241 34.9387C26.2241 30.1013 30.1455 26.1799 34.9829 26.1799C39.8202 26.1799 43.7416 30.1013 43.7416 34.9387Z" fill="#CCCCCC" fill-opacity="1.000000" fill-rule="evenodd"/>
	</g>
</svg>
