<svg width="70.000000" height="70.000000" viewBox="0 0 70 70" fill="none" xmlns="http://www.w3.org/2000/svg" xmlns:xlink="http://www.w3.org/1999/xlink">
	<desc>
			Created with Pixso.
	</desc>
	<defs>
		<clipPath id="clip2255_14">
			<rect id="linkedin_icon" width="70.000000" height="70.000000" fill="white" fill-opacity="0"/>
		</clipPath>
	</defs>
	<rect id="linkedin_icon" width="70.000000" height="70.000000" fill="#FFFFFF" fill-opacity="0"/>
	<g clip-path="url(#clip2255_14)">
		<path id="Vector" d="M58.3333 8.75L11.6667 8.75C10.8931 8.75 10.1513 9.05725 9.60427 9.60425C9.05729 10.1512 8.75 10.8931 8.75 11.6666L8.75 58.3334C8.75 59.1069 9.05729 59.8488 9.60427 60.3958C10.1513 60.9427 10.8931 61.25 11.6667 61.25L58.3333 61.25C59.1069 61.25 59.8488 60.9427 60.3957 60.3958C60.9427 59.8488 61.25 59.1069 61.25 58.3334L61.25 11.6666C61.25 10.8931 60.9427 10.1512 60.3957 9.60425C59.8488 9.05725 59.1069 8.75 58.3333 8.75ZM24.3221 53.4829L16.5287 53.4829L16.5287 28.4287L24.3221 28.4287L24.3221 53.4829ZM20.4254 25.0074C19.228 25.0074 18.0796 24.5319 17.2328 23.6851C16.3861 22.8384 15.9104 21.6899 15.9104 20.4926C15.9104 19.295 16.3861 18.1466 17.2328 17.2999C18.0796 16.4532 19.228 15.9775 20.4254 15.9775C21.6229 15.9775 22.7713 16.4532 23.618 17.2999C24.4647 18.1466 24.9404 19.295 24.9404 20.4926C24.9404 21.6899 24.4647 22.8384 23.618 23.6851C22.7713 24.5319 21.6229 25.0074 20.4254 25.0074ZM53.4858 53.4829L45.7012 53.4829L45.7012 41.3C45.7012 38.395 45.6487 34.6587 41.6529 34.6587C37.5988 34.6587 36.9833 37.8263 36.9833 41.0958L36.9833 53.4858L29.2046 53.4858L29.2046 28.4316L36.6712 28.4316L36.6712 31.8558L36.7792 31.8558C37.8146 29.8871 40.3579 27.8104 44.1408 27.8104C52.0275 27.8104 53.4829 32.9962 53.4829 39.7454L53.4829 53.4829L53.4858 53.4829Z" fill="#CCCCCC" fill-opacity="1.000000" fill-rule="nonzero"/>
	</g>
</svg>
