<svg width="70.000000" height="70.000000" viewBox="0 0 70 70" fill="none" xmlns="http://www.w3.org/2000/svg" xmlns:xlink="http://www.w3.org/1999/xlink">
	<desc>
			Created with Pixso.
	</desc>
	<defs>
		<clipPath id="clip2255_12">
			<rect id="pinterest_icon" width="70.000000" height="70.000000" fill="white" fill-opacity="0"/>
		</clipPath>
	</defs>
	<rect id="pinterest_icon" width="70.000000" height="70.000000" fill="#FFFFFF" fill-opacity="0"/>
	<g clip-path="url(#clip2255_12)">
		<path id="Vector" d="M26.3667 62.8251C29.1667 63.6709 31.9958 64.1667 35 64.1667C42.7355 64.1667 50.1541 61.0938 55.6239 55.624C61.0938 50.1542 64.1667 42.7355 64.1667 35C64.1667 31.1698 63.4122 27.3771 61.9465 23.8385C60.4807 20.2998 58.3323 17.0845 55.6239 14.3761C52.9156 11.6677 49.7003 9.51929 46.1616 8.05359C42.6229 6.58777 38.8302 5.83337 35 5.83337C31.1698 5.83337 27.377 6.58777 23.8384 8.05359C20.2997 9.51929 17.0844 11.6677 14.376 14.3761C8.90622 19.8459 5.83331 27.2645 5.83331 35C5.83331 47.3959 13.6208 58.0417 24.6166 62.2417C24.3541 59.9667 24.0916 56.2042 24.6166 53.6084L27.9708 39.2001C27.9708 39.2001 27.125 37.5084 27.125 34.8251C27.125 30.8 29.6333 27.7959 32.4917 27.7959C35 27.7959 36.1667 29.6334 36.1667 31.9958C36.1667 34.5042 34.5042 38.0917 33.6583 41.5333C33.1625 44.3917 35.175 46.9 38.0916 46.9C43.2833 46.9 47.3083 41.3584 47.3083 33.5417C47.3083 26.5417 42.2917 21.7584 35.0875 21.7584C26.8625 21.7584 22.0208 27.8834 22.0208 34.3292C22.0208 36.8375 22.8375 39.375 24.1792 41.0376C24.4417 41.2125 24.4417 41.4459 24.3542 41.8834L23.5083 45.0625C23.5083 45.5583 23.1875 45.7334 22.6917 45.3834C18.9583 43.75 16.8 38.4417 16.8 34.1542C16.8 24.9375 23.3333 16.5667 35.9333 16.5667C45.9666 16.5667 53.7833 23.7709 53.7833 33.3375C53.7833 43.3708 47.5708 51.4209 38.675 51.4209C35.8458 51.4209 33.075 49.9042 32.0833 48.125L30.1292 55.0376C29.4583 57.5459 27.6208 60.9 26.3667 62.9126L26.3667 62.8251Z" fill="#CCCCCC" fill-opacity="1.000000" fill-rule="nonzero"/>
	</g>
</svg>
