<svg width="70.000000" height="70.000000" viewBox="0 0 70 70" fill="none" xmlns="http://www.w3.org/2000/svg" xmlns:xlink="http://www.w3.org/1999/xlink">
	<desc>
			Created with Pixso.
	</desc>
	<defs>
		<clipPath id="clip2255_4">
			<rect id="rss_icon" width="70.000000" height="70.000000" fill="white" fill-opacity="0"/>
		</clipPath>
	</defs>
	<rect id="rss_icon" width="70.000000" height="70.000000" fill="#FFFFFF" fill-opacity="0"/>
	<g clip-path="url(#clip2255_4)">
		<path id="Vector" d="M24.3833 51.975C24.3833 55.4867 21.5366 58.3334 18.025 58.3334C14.5134 58.3334 11.6666 55.4867 11.6666 51.975C11.6666 48.4634 14.5134 45.6167 18.025 45.6167C21.5366 45.6167 24.3833 48.4634 24.3833 51.975Z" fill="#CCCCCC" fill-opacity="1.000000" fill-rule="evenodd"/>
		<path id="Vector" d="M11.6666 12.95L11.6666 21.2041C32.1708 21.2041 48.7958 37.8291 48.7958 58.3333L57.0499 58.3333C57.0499 33.2792 36.7208 12.95 11.6666 12.95ZM11.6666 29.4583L11.6666 37.7124C23.0416 37.7124 32.2875 46.9583 32.2875 58.3333L40.5416 58.3333C40.5416 42.3792 27.6208 29.4583 11.6666 29.4583Z" fill="#CCCCCC" fill-opacity="1.000000" fill-rule="nonzero"/>
	</g>
</svg>
