<svg width="70.000000" height="70.000000" viewBox="0 0 70 70" fill="none" xmlns="http://www.w3.org/2000/svg" xmlns:xlink="http://www.w3.org/1999/xlink">
	<desc>
			Created with Pixso.
	</desc>
	<defs>
		<clipPath id="clip2255_16">
			<rect id="twitter_icon" width="70.000000" height="70.000000" fill="white" fill-opacity="0"/>
		</clipPath>
	</defs>
	<rect id="twitter_icon" width="70.000000" height="70.000000" fill="#FFFFFF" fill-opacity="0"/>
	<g clip-path="url(#clip2255_16)">
		<path id="Vector" d="M57.2629 23.3247C57.3008 23.8351 57.3008 24.3425 57.3008 24.8501C57.3008 40.3813 45.4796 58.278 23.8758 58.278C17.22 58.278 11.0366 56.3501 5.83331 53.0017C6.77831 53.1096 7.68831 53.1476 8.67123 53.1476C13.9591 53.1604 19.0973 51.3922 23.2575 48.1281C20.8058 48.0836 18.4292 47.2748 16.4594 45.8143C14.4897 44.3539 13.0252 42.3148 12.2704 39.9818C12.9966 40.0897 13.7258 40.1626 14.49 40.1626C15.5429 40.1626 16.6016 40.0167 17.5846 39.7631C14.9239 39.2258 12.5314 37.7836 10.8139 35.6816C9.09637 33.5797 8.15992 30.9478 8.16373 28.2334L8.16373 28.0876C9.72998 28.9597 11.5471 29.5051 13.4721 29.578C11.8594 28.5063 10.5371 27.0522 9.62305 25.3453C8.70903 23.6384 8.23173 21.7317 8.23373 19.7955C8.23373 17.6139 8.81415 15.613 9.83206 13.8689C12.7841 17.5001 16.466 20.4709 20.6393 22.5886C24.8126 24.7064 29.3841 25.9241 34.0579 26.1626C33.8771 25.2876 33.7662 24.3805 33.7662 23.4705C33.7655 21.9275 34.0688 20.3994 34.659 18.9738C35.2491 17.548 36.1144 16.2526 37.2055 15.1615C38.2966 14.0704 39.592 13.2051 41.0178 12.6149C42.4435 12.0248 43.9715 11.7214 45.5146 11.7222C48.8979 11.7222 51.9516 13.1396 54.0983 15.4321C56.7285 14.9236 59.2507 13.9634 61.5533 12.5942C60.6766 15.3091 58.8401 17.6112 56.3879 19.0692C58.7206 18.8032 61.0004 18.1897 63.1516 17.2493C61.5449 19.5917 59.554 21.6456 57.2629 23.3247Z" fill="#CCCCCC" fill-opacity="1.000000" fill-rule="nonzero"/>
	</g>
</svg>
